<svg id="visual" viewBox="0 0 900 300" width="900" height="300" xmlns="http://www.w3.org/2000/svg" xmlns:xlink="http://www.w3.org/1999/xlink" version="1.1"><path d="M0 79L13.7 77C27.3 75 54.7 71 82 70C109.3 69 136.7 71 163.8 70.5C191 70 218 67 245.2 69C272.3 71 299.7 78 327 74.5C354.3 71 381.7 57 409 55C436.3 53 463.7 63 491 63C518.3 63 545.7 53 573 51C600.3 49 627.7 55 654.8 61.5C682 68 709 75 736.2 76C763.3 77 790.7 72 818 69C845.3 66 872.7 65 886.3 64.5L900 64L900 0L886.3 0C872.7 0 845.3 0 818 0C790.7 0 763.3 0 736.2 0C709 0 682 0 654.8 0C627.7 0 600.3 0 573 0C545.7 0 518.3 0 491 0C463.7 0 436.3 0 409 0C381.7 0 354.3 0 327 0C299.7 0 272.3 0 245.2 0C218 0 191 0 163.8 0C136.7 0 109.3 0 82 0C54.7 0 27.3 0 13.7 0L0 0Z" fill="#202731"></path><path d="M0 112L13.7 109C27.3 106 54.7 100 82 103.5C109.3 107 136.7 120 163.8 121.5C191 123 218 113 245.2 109.5C272.3 106 299.7 109 327 106.5C354.3 104 381.7 96 409 96.5C436.3 97 463.7 106 491 105C518.3 104 545.7 93 573 90.5C600.3 88 627.7 94 654.8 99.5C682 105 709 110 736.2 114.5C763.3 119 790.7 123 818 122C845.3 121 872.7 115 886.3 112L900 109L900 62L886.3 62.5C872.7 63 845.3 64 818 67C790.7 70 763.3 75 736.2 74C709 73 682 66 654.8 59.5C627.7 53 600.3 47 573 49C545.7 51 518.3 61 491 61C463.7 61 436.3 51 409 53C381.7 55 354.3 69 327 72.5C299.7 76 272.3 69 245.2 67C218 65 191 68 163.8 68.5C136.7 69 109.3 67 82 68C54.7 69 27.3 73 13.7 75L0 77Z" fill="#373860"></path><path d="M0 193L13.7 190.5C27.3 188 54.7 183 82 186.5C109.3 190 136.7 202 163.8 208C191 214 218 214 245.2 204C272.3 194 299.7 174 327 166C354.3 158 381.7 162 409 171.5C436.3 181 463.7 196 491 200C518.3 204 545.7 197 573 196.5C600.3 196 627.7 202 654.8 206.5C682 211 709 214 736.2 212.5C763.3 211 790.7 205 818 196.5C845.3 188 872.7 177 886.3 171.5L900 166L900 107L886.3 110C872.7 113 845.3 119 818 120C790.7 121 763.3 117 736.2 112.5C709 108 682 103 654.8 97.5C627.7 92 600.3 86 573 88.5C545.7 91 518.3 102 491 103C463.7 104 436.3 95 409 94.5C381.7 94 354.3 102 327 104.5C299.7 107 272.3 104 245.2 107.5C218 111 191 121 163.8 119.5C136.7 118 109.3 105 82 101.5C54.7 98 27.3 104 13.7 107L0 110Z" fill="#733c81"></path><path d="M0 217L13.7 219C27.3 221 54.7 225 82 230C109.3 235 136.7 241 163.8 243C191 245 218 243 245.2 234C272.3 225 299.7 209 327 201.5C354.3 194 381.7 195 409 201.5C436.3 208 463.7 220 491 222.5C518.3 225 545.7 218 573 219C600.3 220 627.7 229 654.8 234C682 239 709 240 736.2 236.5C763.3 233 790.7 225 818 217C845.3 209 872.7 201 886.3 197L900 193L900 164L886.3 169.5C872.7 175 845.3 186 818 194.5C790.7 203 763.3 209 736.2 210.5C709 212 682 209 654.8 204.5C627.7 200 600.3 194 573 194.5C545.7 195 518.3 202 491 198C463.7 194 436.3 179 409 169.5C381.7 160 354.3 156 327 164C299.7 172 272.3 192 245.2 202C218 212 191 212 163.8 206C136.7 200 109.3 188 82 184.5C54.7 181 27.3 186 13.7 188.5L0 191Z" fill="#bd2b84"></path><path d="M0 301L13.7 301C27.3 301 54.7 301 82 301C109.3 301 136.7 301 163.8 301C191 301 218 301 245.2 301C272.3 301 299.7 301 327 301C354.3 301 381.7 301 409 301C436.3 301 463.7 301 491 301C518.3 301 545.7 301 573 301C600.3 301 627.7 301 654.8 301C682 301 709 301 736.2 301C763.3 301 790.7 301 818 301C845.3 301 872.7 301 886.3 301L900 301L900 191L886.3 195C872.7 199 845.3 207 818 215C790.7 223 763.3 231 736.2 234.5C709 238 682 237 654.8 232C627.7 227 600.3 218 573 217C545.7 216 518.3 223 491 220.5C463.7 218 436.3 206 409 199.5C381.7 193 354.3 192 327 199.5C299.7 207 272.3 223 245.2 232C218 241 191 243 163.8 241C136.7 239 109.3 233 82 228C54.7 223 27.3 219 13.7 217L0 215Z" fill="#ff0066"></path></svg>