<svg id="visual" viewBox="0 0 900 300" width="900" height="300" xmlns="http://www.w3.org/2000/svg" xmlns:xlink="http://www.w3.org/1999/xlink" version="1.1"><rect x="0" y="0" width="900" height="300" fill="#202731"></rect><path d="M0 84L21.5 86.7C43 89.3 86 94.7 128.8 99.2C171.7 103.7 214.3 107.3 257.2 111.2C300 115 343 119 385.8 118.2C428.7 117.3 471.3 111.7 514.2 103.8C557 96 600 86 642.8 84.8C685.7 83.7 728.3 91.3 771.2 99C814 106.7 857 114.3 878.5 118.2L900 122L900 0L878.5 0C857 0 814 0 771.2 0C728.3 0 685.7 0 642.8 0C600 0 557 0 514.2 0C471.3 0 428.7 0 385.8 0C343 0 300 0 257.2 0C214.3 0 171.7 0 128.8 0C86 0 43 0 21.5 0L0 0Z" fill="#ff6f61"></path><path d="M0 98L21.5 96.2C43 94.3 86 90.7 128.8 91.3C171.7 92 214.3 97 257.2 92.8C300 88.7 343 75.3 385.8 72.7C428.7 70 471.3 78 514.2 80.2C557 82.3 600 78.7 642.8 79.2C685.7 79.7 728.3 84.3 771.2 87.3C814 90.3 857 91.7 878.5 92.3L900 93L900 0L878.5 0C857 0 814 0 771.2 0C728.3 0 685.7 0 642.8 0C600 0 557 0 514.2 0C471.3 0 428.7 0 385.8 0C343 0 300 0 257.2 0C214.3 0 171.7 0 128.8 0C86 0 43 0 21.5 0L0 0Z" fill="#f76455"></path><path d="M0 47L21.5 49.3C43 51.7 86 56.3 128.8 61.5C171.7 66.7 214.3 72.3 257.2 72.7C300 73 343 68 385.8 62.8C428.7 57.7 471.3 52.3 514.2 54.5C557 56.7 600 66.3 642.8 68.8C685.7 71.3 728.3 66.7 771.2 65C814 63.3 857 64.7 878.5 65.3L900 66L900 0L878.5 0C857 0 814 0 771.2 0C728.3 0 685.7 0 642.8 0C600 0 557 0 514.2 0C471.3 0 428.7 0 385.8 0C343 0 300 0 257.2 0C214.3 0 171.7 0 128.8 0C86 0 43 0 21.5 0L0 0Z" fill="#ee5849"></path><path d="M0 29L21.5 31.8C43 34.7 86 40.3 128.8 44.8C171.7 49.3 214.3 52.7 257.2 54.5C300 56.3 343 56.7 385.8 56.5C428.7 56.3 471.3 55.7 514.2 55.7C557 55.7 600 56.3 642.8 54.8C685.7 53.3 728.3 49.7 771.2 45C814 40.3 857 34.7 878.5 31.8L900 29L900 0L878.5 0C857 0 814 0 771.2 0C728.3 0 685.7 0 642.8 0C600 0 557 0 514.2 0C471.3 0 428.7 0 385.8 0C343 0 300 0 257.2 0C214.3 0 171.7 0 128.8 0C86 0 43 0 21.5 0L0 0Z" fill="#e64c3d"></path><path d="M0 22L21.5 20.8C43 19.7 86 17.3 128.8 19.2C171.7 21 214.3 27 257.2 30.5C300 34 343 35 385.8 34.8C428.7 34.7 471.3 33.3 514.2 29.5C557 25.7 600 19.3 642.8 17.5C685.7 15.7 728.3 18.3 771.2 21.8C814 25.3 857 29.7 878.5 31.8L900 34L900 0L878.5 0C857 0 814 0 771.2 0C728.3 0 685.7 0 642.8 0C600 0 557 0 514.2 0C471.3 0 428.7 0 385.8 0C343 0 300 0 257.2 0C214.3 0 171.7 0 128.8 0C86 0 43 0 21.5 0L0 0Z" fill="#dd3f31"></path></svg>